<svg width="411" height="116" viewBox="0 0 411 116" fill="none" xmlns="http://www.w3.org/2000/svg">
<g clip-path="url(#clip0_5_24)">
<path fill-rule="evenodd" clip-rule="evenodd" d="M173.538 6.20684C174.297 4.42105 177.368 -0.00482252 183.38 3.94432e-06C189.399 0.00483041 194.294 4.77917 194.295 10.9252C194.297 16.9448 189.399 21.9459 183.38 21.9479C177.368 21.9508 174.404 17.5683 173.55 15.8173C173.545 18.5983 170.881 21.8427 167.137 21.8427L157.851 21.8407V0.357162H167.811C170.903 0.361024 173.545 3.52525 173.538 6.20684ZM163.405 16.8376H166.359C167.218 16.8376 167.895 15.9891 167.895 15.0229C167.895 14.0556 167.218 13.2071 166.359 13.2071H163.405V16.8376ZM163.416 8.77162H166.37C167.229 8.77162 167.906 7.92216 167.906 6.95494C167.906 5.98868 167.229 5.14019 166.37 5.14019H163.416V8.77162ZM172.503 9.57668C172.106 10.0709 170.978 10.8441 170.302 10.93C170.989 11.0159 172.062 11.875 172.516 12.5739C172.353 11.961 172.363 10.1887 172.503 9.57668ZM177.916 10.93C177.916 13.9504 180.364 16.3984 183.384 16.3984C186.404 16.3984 188.853 13.9504 188.853 10.93C188.853 7.90962 186.405 5.46163 183.384 5.46163C180.364 5.46163 177.916 7.91058 177.916 10.93ZM224.624 7.9434C224.626 7.95788 224.624 21.4749 224.624 21.4749C224.624 21.6564 224.502 21.8407 224.323 21.8407H222.486C221.412 21.8427 220.52 20.9266 220.518 19.8377V7.99167C220.436 5.42881 218.637 4.07451 216.429 4.07837C214.222 4.08126 212.426 5.49445 212.352 8.05731V21.4913C212.352 21.6728 212.224 21.8398 212.046 21.8398H210.209C209.134 21.8417 208.242 20.8822 208.24 19.7943V8.00904C208.158 5.44619 206.359 4.09188 204.151 4.09574C201.945 4.09864 200.148 5.45777 200.074 8.02062V21.5087C200.074 21.6901 199.947 21.8398 199.768 21.8398H197.931C196.857 21.8417 195.97 20.9604 195.968 19.8715C195.968 19.8715 195.967 8.00325 195.968 7.99167C196.074 2.7897 199.693 0.0289627 204.147 0.023171C206.591 0.0193098 208.786 0.846566 210.289 2.45281C211.788 0.841739 213.98 0.00965687 216.424 0.0057957C220.873 0.000969244 224.499 2.74819 224.624 7.9434ZM266.945 21.5811C267.018 21.6892 266.938 21.833 266.805 21.833L263.524 21.8417C262.754 21.8436 262.004 21.75 261.339 20.8166L257.982 15.8627C257.719 15.4746 257.338 15.0151 256.797 15.0151C256.255 15.0151 255.874 15.4746 255.611 15.8627L252.254 20.8166C251.589 21.75 250.839 21.8436 250.069 21.8417H246.788C246.655 21.8417 246.575 21.6892 246.648 21.5811L253.123 12.0237C253.311 11.7447 253.403 11.4214 253.399 11.098C253.403 10.7746 253.311 10.4512 253.123 10.1723L246.648 0.614896C246.575 0.506783 246.655 0.360058 246.788 0.360058H250.069C250.839 0.358128 251.589 0.445969 252.254 1.37941L255.611 6.33329C255.874 6.72134 256.256 7.18082 256.797 7.18082C257.337 7.18082 257.719 6.72134 257.982 6.33329L261.339 1.37941C262.004 0.445969 262.754 0.358128 263.524 0.360058H266.805C266.938 0.360058 267.018 0.506783 266.945 0.614896L260.47 10.1723C260.282 10.4512 260.191 10.7746 260.194 11.098C260.191 11.4214 260.282 11.7447 260.47 12.0237L266.945 21.5811ZM244.066 0.360058H245.359C245.542 0.360058 245.69 0.506783 245.69 0.691154L245.682 21.582C245.682 21.7635 245.534 21.8427 245.351 21.8427H243.476C242.434 21.8427 241.581 21.11 241.5 20.0907C240.065 21.2519 237.823 22 235.561 22C229.653 22 225.577 17.7981 225.577 11.0043C225.577 4.26467 229.586 0.00869158 235.609 0.00869158C237.601 0.00869158 240.011 0.617792 241.87 2.1835L242.348 1.34948C242.702 0.737488 243.358 0.361024 244.066 0.360058ZM229.587 11.0034C229.587 15.3569 232.097 17.9062 235.521 17.9062C238.946 17.9062 241.456 15.3569 241.456 11.0034C241.456 6.64991 238.946 4.10057 235.521 4.10057C232.097 4.10057 229.587 6.64991 229.587 11.0034ZM150.803 8.35075H147.015V0.359093H141V21.8417H147.015V13.5064H150.803V21.8417H156.638V0.359093H150.803V8.35075ZM183.384 6.63157C181.01 6.63157 179.086 8.55636 179.086 10.93C179.086 13.3046 181.01 15.2294 183.384 15.2294C185.758 15.2294 187.682 13.3046 187.682 10.93C187.682 8.55636 185.758 6.63157 183.384 6.63157ZM267.495 0.55794H267.791V1.41126H268.032V0.55794H268.337V0.359089H267.495V0.55794ZM269.294 0.359089L269.009 0.827256L268.724 0.359089H268.484V1.41126H268.724V0.800228L268.996 1.24619H269.023L269.294 0.800228V1.41126H269.535V0.359089H269.294Z" fill="white"/>
</g>
<path d="M15.12 101H8.976L1.344 65.96H5.664L12.144 97.064L18.816 65.96H22.992L29.616 97.064L36.144 65.96H40.464L32.832 101H26.688L20.88 74.312L15.12 101ZM51.0285 76.088C54.0685 73.944 57.1085 72.872 60.1485 72.872C63.2205 72.872 65.3965 73.592 66.6765 75.032C67.9565 76.44 68.5965 78.6 68.5965 81.512V101H64.4685V81.608C64.4685 79.688 64.1005 78.312 63.3645 77.48C62.6285 76.648 61.3965 76.232 59.6685 76.232C56.6925 76.232 53.8125 77.304 51.0285 79.448V101H46.9005V64.616L51.0285 64.136V76.088ZM83.6828 97.448C84.7708 98.024 86.1148 98.312 87.7148 98.312C89.3148 98.312 90.6428 98.024 91.6988 97.448C92.7868 96.84 93.5868 95.992 94.0988 94.904C94.6108 93.784 94.9628 92.632 95.1548 91.448C95.3788 90.232 95.4908 88.84 95.4908 87.272C95.4908 85.704 95.3788 84.328 95.1548 83.144C94.9628 81.928 94.6108 80.776 94.0988 79.688C93.5868 78.568 92.7868 77.72 91.6988 77.144C90.6428 76.536 89.3148 76.232 87.7148 76.232C86.1148 76.232 84.7708 76.536 83.6828 77.144C82.6268 77.72 81.8268 78.568 81.2828 79.688C80.7708 80.776 80.4188 81.912 80.2268 83.096C80.0348 84.28 79.9388 85.672 79.9388 87.272C79.9388 88.872 80.0348 90.264 80.2268 91.448C80.4188 92.632 80.7708 93.784 81.2828 94.904C81.8268 95.992 82.6268 96.84 83.6828 97.448ZM99.6188 87.272C99.6188 96.872 95.6508 101.672 87.7148 101.672C79.7788 101.672 75.8108 96.872 75.8108 87.272C75.8108 77.672 79.7788 72.872 87.7148 72.872C95.6508 72.872 99.6188 77.672 99.6188 87.272ZM121.197 65.96H125.421V101H121.197V65.96ZM145.524 85.688C148.404 86.392 150.452 87.336 151.668 88.52C152.916 89.672 153.54 91.416 153.54 93.752C153.54 96.056 152.676 97.928 150.948 99.368C149.22 100.808 146.66 101.528 143.268 101.528C139.876 101.528 137.412 100.888 135.876 99.608C134.372 98.296 133.412 96.408 132.996 93.944L136.356 93.416C136.836 96.648 139.028 98.264 142.932 98.264C147.252 98.264 149.412 96.808 149.412 93.896C149.412 92.616 149.012 91.672 148.212 91.064C147.444 90.456 146.052 89.896 144.036 89.384L141.3 88.712C138.516 88.008 136.532 87.08 135.348 85.928C134.196 84.776 133.62 83.032 133.62 80.696C133.62 78.328 134.452 76.44 136.116 75.032C137.78 73.592 140.228 72.872 143.46 72.872C146.724 72.872 149.076 73.528 150.516 74.84C151.988 76.12 152.932 77.992 153.348 80.456L149.94 80.984C149.524 77.752 147.476 76.136 143.796 76.136C139.764 76.136 137.748 77.592 137.748 80.504C137.748 81.784 138.116 82.744 138.852 83.384C139.588 83.992 140.884 84.536 142.74 85.016L145.524 85.688ZM185.089 101H178.945L171.313 65.96H175.633L182.113 97.064L188.785 65.96H192.961L199.585 97.064L206.113 65.96H210.433L202.801 101H196.657L190.849 74.312L185.089 101ZM232.421 74.696C234.341 76.072 235.301 78.664 235.301 82.472V101H232.565L231.509 96.728C228.437 100.024 225.061 101.672 221.381 101.672C218.949 101.672 217.157 101.032 216.005 99.752C214.885 98.472 214.325 96.744 214.325 94.568C214.325 92.392 214.997 90.632 216.341 89.288C217.717 87.944 220.277 86.968 224.021 86.36L231.173 85.208V82.472C231.173 80.104 230.661 78.472 229.637 77.576C228.645 76.68 227.269 76.232 225.509 76.232C221.989 76.232 219.893 77.944 219.221 81.368L215.861 80.36C216.373 77.992 217.445 76.152 219.077 74.84C220.709 73.528 222.917 72.872 225.701 72.872C228.517 72.872 230.757 73.48 232.421 74.696ZM222.533 98.504C225.413 98.504 228.293 96.952 231.173 93.848V88.088L224.405 89.24C222.133 89.656 220.565 90.312 219.701 91.208C218.837 92.072 218.405 93.144 218.405 94.424C218.405 95.672 218.741 96.664 219.413 97.4C220.085 98.136 221.125 98.504 222.533 98.504ZM240.914 76.376V73.544H245.618V68.552L249.746 66.92V73.544H255.554V76.376H249.746V94.568C249.746 96.008 249.938 97.032 250.322 97.64C250.738 98.216 251.33 98.504 252.098 98.504C252.866 98.504 253.81 98.376 254.93 98.12L255.41 100.904C253.682 101.416 252.21 101.672 250.994 101.672C249.81 101.672 248.834 101.48 248.066 101.096C247.298 100.712 246.754 100.136 246.434 99.368C245.89 98.216 245.618 96.664 245.618 94.712V76.376H240.914ZM263.173 87.272C263.173 88.84 263.269 90.232 263.461 91.448C263.653 92.664 264.005 93.816 264.517 94.904C265.573 97.176 267.573 98.312 270.517 98.312C272.917 98.312 274.629 97.848 275.653 96.92C276.709 95.96 277.285 94.552 277.381 92.696L280.741 92.84C280.517 95.688 279.621 97.88 278.053 99.416C276.485 100.92 273.925 101.672 270.373 101.672C265.349 101.672 262.021 99.624 260.389 95.528C259.493 93.288 259.045 90.84 259.045 88.184C259.045 85.528 259.205 83.416 259.525 81.848C259.845 80.248 260.405 78.728 261.205 77.288C262.869 74.344 265.925 72.872 270.373 72.872C273.925 72.872 276.485 73.608 278.053 75.08C279.621 76.52 280.501 78.616 280.693 81.368L277.381 81.848C277.285 79.992 276.709 78.6 275.653 77.672C274.629 76.712 272.917 76.232 270.517 76.232C267.573 76.232 265.573 77.368 264.517 79.64C263.621 81.528 263.173 84.072 263.173 87.272ZM292.06 76.088C295.1 73.944 298.14 72.872 301.18 72.872C304.252 72.872 306.428 73.592 307.708 75.032C308.988 76.44 309.628 78.6 309.628 81.512V101H305.5V81.608C305.5 79.688 305.132 78.312 304.396 77.48C303.66 76.648 302.428 76.232 300.7 76.232C297.724 76.232 294.844 77.304 292.06 79.448V101H287.932V64.616L292.06 64.136V76.088ZM319.338 73.544H323.466V101H319.338V73.544ZM321.402 68.936C319.77 68.936 318.954 68.056 318.954 66.296C318.954 64.504 319.77 63.608 321.402 63.608C323.098 63.608 323.946 64.504 323.946 66.296C323.946 68.056 323.098 68.936 321.402 68.936ZM337.235 76.424C340.467 74.056 343.651 72.872 346.787 72.872C349.923 72.872 352.131 73.592 353.411 75.032C354.691 76.44 355.331 78.6 355.331 81.512V101H351.203V81.608C351.203 79.688 350.835 78.312 350.099 77.48C349.363 76.648 348.131 76.232 346.403 76.232C343.427 76.232 340.547 77.304 337.763 79.448V101H333.635V73.544H336.083L337.235 76.424ZM381.841 89.192C381.137 90.152 380.081 90.92 378.673 91.496C377.297 92.072 375.649 92.36 373.729 92.36C371.809 92.36 370.113 92.072 368.641 91.496L366.481 93.608C365.745 94.312 365.377 95.112 365.377 96.008C365.377 97.192 366.113 97.784 367.585 97.784H378.337C380.673 97.784 382.497 98.408 383.809 99.656C385.153 100.872 385.825 102.376 385.825 104.168C385.825 105.992 385.473 107.432 384.769 108.488C384.065 109.576 383.057 110.376 381.745 110.888C379.473 111.752 376.529 112.184 372.913 112.184C369.297 112.184 366.497 111.704 364.513 110.744C362.561 109.816 361.585 108.232 361.585 105.992C361.585 103.784 362.545 101.992 364.465 100.616C362.641 99.912 361.729 98.536 361.729 96.488C361.729 94.952 362.401 93.512 363.745 92.168L366.049 89.864C364.353 88.2 363.505 85.784 363.505 82.616C363.505 80.056 364.161 77.864 365.473 76.04C366.177 75.08 367.217 74.312 368.593 73.736C370.001 73.16 371.617 72.872 373.441 72.872C375.297 72.872 376.865 73.096 378.145 73.544H385.393V76.28H381.985C383.201 77.944 383.809 80.056 383.809 82.616C383.809 85.176 383.153 87.368 381.841 89.192ZM373.633 75.848C369.537 75.848 367.489 78.104 367.489 82.616C367.489 87.128 369.537 89.384 373.633 89.384C377.761 89.384 379.825 87.128 379.825 82.616C379.825 78.104 377.761 75.848 373.633 75.848ZM365.473 104.936C365.473 106.536 366.129 107.592 367.441 108.104C368.753 108.616 370.785 108.872 373.537 108.872C376.321 108.872 378.353 108.584 379.633 108.008C380.945 107.464 381.601 106.296 381.601 104.504C381.601 103.256 381.137 102.36 380.209 101.816C379.313 101.272 378.257 101 377.041 101H367.441C366.129 102.056 365.473 103.368 365.473 104.936ZM400.43 99.896C400.366 100.248 400.126 100.584 399.71 100.904C399.294 101.224 398.702 101.384 397.934 101.384C397.198 101.384 396.622 101.224 396.206 100.904C395.822 100.584 395.582 100.248 395.486 99.896C395.422 99.512 395.39 99.08 395.39 98.6C395.39 98.088 395.406 97.688 395.438 97.4C395.502 97.112 395.614 96.808 395.774 96.488C396.03 95.816 396.718 95.48 397.838 95.48C398.99 95.48 399.726 95.752 400.046 96.296C400.398 96.84 400.574 97.48 400.574 98.216C400.574 98.952 400.526 99.512 400.43 99.896ZM389.15 72.632C389.534 70.36 390.542 68.568 392.174 67.256C393.806 65.944 396.142 65.288 399.182 65.288C402.254 65.288 404.686 66.28 406.478 68.264C408.302 70.216 409.214 72.568 409.214 75.32C409.214 80.248 406.078 83.8 399.806 85.976L399.278 91.832H396.638L396.254 84.536C399.358 83.512 401.614 82.28 403.022 80.84C404.462 79.368 405.182 77.64 405.182 75.656C405.182 73.64 404.638 71.944 403.55 70.568C402.462 69.192 400.862 68.504 398.75 68.504C395.326 68.504 393.31 70.04 392.702 73.112L389.15 72.632Z" fill="white"/>
<defs>
<clipPath id="clip0_5_24">
<rect width="129" height="22" fill="white" transform="translate(141)"/>
</clipPath>
</defs>
</svg>
